<svg xmlns="http://www.w3.org/2000/svg" width="202" height="26" viewBox="0 0 202 26" id="aympnyt-logo">
    <!-- SPDX-License-Identifier: LGPL-2.1-or-later -->
    <path d="M1079.5,87.9c-4.5,1.1 -10.7,4.6 -13.4,7.5 -2.8,3 -4.1,2.1 -4.1,-3.2l0,-3.2 -11.5,-0 -11.5,-0 0,45 0,45 12,-0 12,-0 0,-31.9c0,-30.8 0.1,-31.9 2.1,-34.5 3.1,-4 7.6,-5.9 13.8,-5.8 5.9,-0 9.6,2 11.8,6.3 0.9,1.8 1.3,10.9 1.3,34.1l0,31.8 12,-0 12,-0 0,-31.1c0,-29.9 0.1,-31.3 2.1,-34.6 1.1,-1.8 3.5,-4.1 5.2,-5 4.1,-2.1 13,-2 16.3,0.2 5,3.3 5.4,5.9 5.4,39.5l0,31 12.1,-0 12,-0 -0.3,-35.3c-0.3,-31.4 -0.6,-35.7 -2.2,-40.1 -4.3,-11.2 -15,-17.3 -29,-16.4 -8.8,0.6 -15.1,3.3 -20.6,8.8l-4.2,4.2 -1.6,-2.4c-3,-4.4 -7.2,-7.6 -11.9,-9.2 -4.8,-1.6 -14.5,-2 -19.8,-0.7z"/>
    <path d="M1223.4,88.6c-2.3,0.8 -6,3.1 -8.3,5 -4.1,3.6 -4.1,3.6 -4.1,1.1 0,-5.5 -0.4,-5.7 -12.1,-5.7l-10.9,-0 0,62.5 0,62.5 12,-0 12,-0 0,-20.9 0,-21 5.1,3.4c5.9,4 10.5,5.5 17.5,5.5 16.1,-0 28.4,-11.4 32.9,-30.2 1.7,-7.1 2,-24 0.6,-31.4 -2.7,-14.1 -9.4,-24.4 -18.7,-29 -7,-3.4 -19.3,-4.3 -26,-1.8zM1236.1,108.6c6.2,3.1 9.4,13.4 8.6,27.8 -0.6,11.6 -2,16.7 -5.7,20.6 -5.7,6.1 -17.2,6 -23.7,-0.3l-3.3,-3.1 0,-19.7 0,-19.7 3.5,-3.1c2,-1.7 4.8,-3.3 6.3,-3.7 1.5,-0.3 3.2,-0.7 3.7,-0.9 1.6,-0.5 7.8,0.7 10.6,2.1z"/>
    <path d="M1312.7,88c-14.3,3.6 -26.1,16.3 -29.7,32 -1.9,8 -1.7,23.3 0.4,30.5 4.4,14.9 16.5,26.3 31.4,29.4 12.3,2.6 26.7,0.6 35.2,-4.9 5.4,-3.4 11.4,-9.4 10.9,-10.8 -0.2,-0.6 -2.8,-3.5 -5.7,-6.6l-5.3,-5.6 -4,3.4c-9.9,8.5 -27.8,7.9 -34.9,-1.1 -2.4,-3.1 -5,-8.7 -5,-10.9 0,-1.1 5.3,-1.4 28.8,-1.6l28.7,-0.3 -0.3,-10c-0.5,-21.2 -7,-33.8 -20.8,-40.6 -5.7,-2.8 -7.6,-3.2 -16.2,-3.5 -5.3,-0.2 -11.4,0.1 -13.5,0.6zM1333,108.9c3.1,2.1 7,9.6 7,13.3l0,2.8 -17,-0 -17,-0 0.6,-2.8c1.8,-7.2 6.8,-13.6 12,-15.2 3.9,-1.2 11.4,-0.3 14.4,1.9z"/>
    <path d="M1417.3,88.4c-4.9,1.6 -10.2,4.7 -12.8,7.6 -2.7,3 -3.5,2.5 -3.5,-2.5l0,-4.5 -11.5,-0 -11.5,-0 0,45 0,45 12,-0 12,-0 0,-31.9c0,-30.8 0.1,-31.9 2.1,-34.5 3,-3.9 7.7,-5.9 13.4,-5.9 6.6,-0 10.6,2 12.7,6.3 1.6,3.1 1.8,7 1.8,34.7l0,31.3 12,-0 12,-0 0,-32.5c0,-33.2 -0.6,-39.7 -4.1,-46.7 -5.2,-10.3 -21.1,-15.6 -34.6,-11.4z"/>
    <path d="M1466,89.6c0,0.4 7,20.8 15.6,45.4l15.5,44.7 -2.3,5.8c-3,7.3 -6.2,9.8 -13.6,10.5l-5.7,0.5 -0.3,9.1 -0.3,9.1 3.2,0.7c5.5,1.1 13.5,0.7 18,-0.9 5,-1.8 11,-7.2 14.4,-13 2,-3.4 39.5,-109.5 39.5,-111.8 0,-0.4 -5.7,-0.6 -12.7,-0.5l-12.7,0.3 -5.1,17.5c-2.8,9.6 -6.4,21.9 -8,27.3 -1.6,5.3 -3.1,9.5 -3.4,9.2 -0.3,-0.3 -4.2,-12.6 -8.6,-27.3l-8,-26.7 -12.8,-0.3c-7,-0.1 -12.7,-0 -12.7,0.4z"/>
    <path d="M1584.8,88.4c-18.3,5.3 -29.7,22.9 -29.8,45.9 0,21.3 9.6,37 26.7,43.8 4.9,2 7.7,2.3 17.8,2.3 13.8,-0 19.4,-1.6 27.9,-8.1 8.3,-6.4 8.4,-6.8 1.6,-14.3l-5.8,-6.5 -3.4,3.1c-4.3,4.1 -6.7,5.3 -13.1,6.4 -12.8,2.4 -24.6,-4.5 -26.4,-15.4l-0.6,-3.6 28.4,-0.2 28.4,-0.3 0.3,-7.8c0.3,-9.1 -0.7,-15.8 -3.9,-24.2 -2.9,-7.9 -12.2,-17.4 -19.4,-19.9 -6.6,-2.4 -22.4,-3 -28.7,-1.2zM1606.1,108.6c3.2,1.6 6.9,8.7 6.9,13.2l0,3.2 -16.5,-0c-15.1,-0 -16.5,-0.2 -16.5,-1.8 0,-2.4 4.4,-11.4 6.3,-13.1 4.9,-4 13.7,-4.7 19.8,-1.5z"/>
    <path d="M1655.8,77.2l-0.3,11.3 -6.8,0.3 -6.8,0.3 0.3,8.2 0.3,8.2 6.5,0.5 6.5,0.5 0.5,29.6 0.5,29.6 3,4.8c4.6,7.4 10.3,10 22,10 4.9,-0 10.2,-0.3 11.8,-0.8 2.7,-0.7 2.7,-0.8 2.7,-9.7l0,-9 -6,-0c-10.2,-0 -10,0.6 -10,-29.5l0,-25.5 7.5,-0 7.5,-0 0,-8.5 0,-8.4 -7.2,-0.3 -7.3,-0.3 -0.5,-11 -0.5,-11 -11.7,-0.3 -11.7,-0.3 -0.3,11.3z"/>
    <path d="M371,44c0,1.3 73.9,129.4 74.8,129.8 0.8,0.2 15.2,-23.7 15.2,-25.2 0,-0.4 -4.3,-8.2 -9.6,-17.3 -5.7,-10 -9.2,-16.9 -8.6,-17.5 0.5,-0.5 4.6,-0.8 9.2,-0.6l8.4,0.3 4.7,7.9c2.6,4.3 5.1,8.2 5.6,8.7 0.8,0.8 15.3,-23.6 15.3,-25.8 0,-1.1 -31.9,-57.2 -34,-59.8 -1.1,-1.3 -6.4,-1.5 -41.1,-1.5 -25.8,-0 -39.9,0.4 -39.9,1zM439.8,77.3c2.3,4 4.2,7.6 4.2,8 0,0.4 -4.2,0.7 -9.4,0.7l-9.4,-0 -4.1,-7.5c-2.3,-4.1 -4.1,-7.7 -4.1,-8 0,-0.3 4.2,-0.5 9.3,-0.5l9.3,-0 4.2,7.3z"/>
    <path d="M381.6,93.6c-1.6,6 -2.3,22.5 -1.5,31.4 3.2,34.5 21.8,65 51,84 8.4,5.4 25.3,12.9 26.5,11.8 0.2,-0.3 -1,-3.3 -2.8,-6.6 -2.8,-5.1 -4.1,-6.4 -8.3,-8.4 -14.2,-6.6 -29.8,-19.9 -38.4,-32.7 -11.9,-17.5 -17.2,-34.9 -17.7,-57.3 -0.3,-13.6 -0.3,-13.8 -3.6,-19.3 -1.8,-3 -3.6,-5.5 -3.9,-5.5 -0.4,-0 -1,1.2 -1.3,2.6z"/>
    <path d="M459.7,43.8c-0.3,0.4 2.4,5.7 5.9,11.7 3.5,6.1 10.3,17.9 15.1,26.3 4.8,8.4 9.1,15.1 9.7,14.9 1.1,-0.4 30.6,-51.3 30.6,-52.8 0,-1.1 -60.7,-1.3 -61.3,-0.1z"/>
    <path d="M477.1,5.1c-17.3,2.1 -33.9,8.3 -49.2,18.5 -10.6,7 -10.6,7.4 -0.9,7.4 7.3,-0 8.8,-0.3 12.9,-2.8 6.8,-4.2 18.8,-8.9 28.8,-11.4 6.9,-1.7 11.6,-2.1 22.3,-2.1 17.2,0.1 28.6,2.9 44.7,10.8 11,5.5 11.3,5.6 18.9,5.3l7.6,-0.3 -6.3,-4.8c-10.3,-7.7 -26.7,-15.3 -39.1,-18.1 -12.3,-2.8 -29,-3.9 -39.7,-2.5z"/>
    <path d="M512.2,138.7c-10.5,18 -29.5,51 -39.1,67.7l-4.5,7.9 2.8,5.1c6.3,11.4 19,32.6 19.5,32.6 0.3,-0 4.5,-6.9 9.3,-15.3 4.7,-8.4 12.1,-21.3 16.4,-28.7 4.2,-7.4 16.3,-28.4 26.7,-46.5 10.5,-18.2 20.1,-34.9 21.4,-37.3l2.5,-4.2 -22,-0 -22,-0 -11,18.7z"/>
    <path d="M527.7,45.2c-0.8,1.3 -7.4,12.9 -14.7,25.8 -7.3,12.9 -17.6,30.9 -23,40 -5.3,9.1 -11.2,19.2 -13,22.5 -1.8,3.3 -8.7,15.1 -15.2,26.3 -6.5,11.2 -11.8,20.7 -11.8,21.2 0,1.5 14.2,26 15,26 1.1,-0 5,-6.3 16.7,-27 5.5,-9.6 12.5,-21.8 15.5,-27 3.1,-5.2 9.1,-15.7 13.5,-23.2 4.4,-7.6 8.6,-14.4 9.3,-15.3 1.1,-1.3 5,-1.5 26.4,-1.5l25.1,-0.1 9.4,-16.7c5.2,-9.2 14.1,-24.7 19.8,-34.4 5.7,-9.7 10.3,-17.9 10.3,-18.2 0,-0.3 -18.4,-0.6 -41,-0.6l-41,-0 -1.3,2.2zM564,71.2c0,0.6 -1.8,4.2 -4,8l-4.1,6.8 -10,-0 -10.1,-0 2,-3.3c1.1,-1.7 3.2,-5.3 4.7,-8l2.7,-4.7 9.4,-0c6.6,-0 9.4,0.4 9.4,1.2z"/>
    <path d="M594.1,97.3c-3.4,6.1 -3.5,6.5 -3.7,18.7 -0.3,17.8 -3.3,29.9 -11.4,46 -9,17.9 -25.5,34.2 -43.6,43.3 -4.1,2.1 -5.8,3.7 -8.3,8.1 -5.2,9.3 -4.7,9.3 11.4,1.7 34.3,-16.3 57.7,-49.9 61.6,-88.3 1.1,-11 -0.1,-33.2 -1.9,-35 -0.4,-0.4 -2.2,2.1 -4.1,5.5z"/>
    <path d="M797.3,88.5c-13.7,3.8 -23.4,13.2 -24.5,23.5l-0.3,3.5 11.9,-0 12,-0 0.8,-3.2c1.3,-4.9 5.1,-7.3 11.5,-7.3 3,-0 6.7,0.7 8.2,1.5 3.4,1.7 6.1,7.8 6.1,13.5l0,4 -9.7,-0c-27.5,0.1 -42.5,10.2 -42.7,29 -0.1,8.6 1.6,13 7,18.6 5.6,5.7 12,8.6 20.6,9.2 8.3,0.6 14.4,-1 20.9,-5.4l4.8,-3.3 1.1,3.4 1.2,3.5 12.3,-0 12.4,-0 -1.6,-4.3c-1.4,-3.4 -1.8,-9.9 -2.2,-34.7 -0.6,-28 -0.8,-30.9 -2.7,-35 -2.9,-6.2 -7.7,-10.8 -15.3,-14.3 -5.6,-2.6 -7.8,-3.1 -16.5,-3.4 -6.8,-0.2 -11.8,0.2 -15.3,1.2zM823,146.1c0,8 -0.1,8.2 -3.4,11.4 -5.9,5.5 -16,6.8 -21.4,2.6 -3.2,-2.3 -4.3,-7.8 -2.6,-12.7 2.3,-6.8 7.2,-9.2 19.7,-9.3l7.7,-0.1 0,8.1z"/>
    <path d="M855,89.2c0,0.2 5.9,17.2 13.1,37.8 20.3,58 18.6,51.9 16.4,57.5 -1,2.6 -3,6.1 -4.4,7.8 -2.3,2.5 -3.7,3.1 -9.2,3.6l-6.4,0.6 -0.3,8.8c-0.3,8.6 -0.2,8.7 2.3,9.7 3.4,1.3 13,1.3 17.7,-0 5.6,-1.6 11.7,-6.8 15.2,-13 1.7,-3 11.5,-29.6 21.7,-59l18.6,-53.5 -12.5,-0.3c-6.9,-0.1 -12.6,-0.1 -12.9,0.1 -0.2,0.2 -3,9.4 -6.2,20.3 -10.4,35.4 -10.3,34.9 -11.1,33.3 -0.8,-1.3 -16,-52.2 -16,-53.4 0,-0.3 -5.8,-0.5 -13,-0.5 -7.1,-0 -13,0.1 -13,0.2z"/>
    <path d="M971,88.4c-13.5,3.7 -23.7,13.4 -24.3,23.2l-0.2,3.9 11.2,0.3 11.3,0.3 1.6,-4.1c2.1,-5.1 5.6,-7 13,-7 5,-0 5.9,0.3 8.8,3.2 2.6,2.6 3.4,4.5 4,8.6 0.4,2.9 0.4,5.6 0.2,6.1 -0.3,0.5 -6.3,1.1 -13.3,1.3 -19.8,0.8 -30,5.4 -35.9,16 -2.5,4.6 -2.9,6.3 -2.9,13.3 0,9 1.9,13.7 7.7,19.2 10.1,9.7 29.5,11 40.5,2.6 2.5,-1.9 4.6,-3.3 4.8,-3.1 0.1,0.2 0.7,1.6 1.2,3.3l1,3 12.1,0.3c7.4,0.2 12.2,-0.1 12.2,-0.7 0,-0.5 -0.5,-2.2 -1.2,-3.8 -0.8,-1.9 -1.4,-13 -1.8,-33.3 -0.5,-29 -0.7,-30.7 -2.8,-35.5 -4,-8.6 -11.1,-14.3 -21.4,-17.1 -6.5,-1.7 -19.7,-1.7 -25.8,-0zM996.8,145.5c0.4,8.3 -0.8,10.8 -6.3,14 -10.9,6.2 -22.5,2.4 -22.5,-7.4 0,-9.2 7.5,-14.2 20.5,-13.8l8,0.2 0.3,7z"/>
</svg>
