<?xml version="1.0" standalone="no"?>
<!DOCTYPE svg PUBLIC "-//W3C//DTD SVG 20010904//EN"
 "http://www.w3.org/TR/2001/REC-SVG-20010904/DTD/svg10.dtd">
<svg version="1.0" xmlns="http://www.w3.org/2000/svg"
 width="2020.000000pt" height="260.000000pt" viewBox="0 0 2020.000000 260.000000"
 preserveAspectRatio="xMidYMid meet" id="aympnyt-logo">

<g transform="translate(0.000000,260.000000) scale(0.100000,-0.100000)"
fill="#000000" stroke="none">
<path d="M4771 2549 c-173 -21 -339 -83 -492 -185 -106 -70 -106 -74 -9 -74
73 0 88 3 129 28 68 42 188 89 288 114 69 17 116 21 223 21 172 -1 286 -29
447 -108 110 -55 113 -56 189 -53 l76 3 -63 48 c-103 77 -267 153 -391 181
-123 28 -290 39 -397 25z"/>
<path d="M3710 2160 c0 -13 739 -1294 748 -1298 8 -2 152 237 152 252 0 4 -43
82 -96 173 -57 100 -92 169 -86 175 5 5 46 8 92 6 l84 -3 47 -79 c26 -43 51
-82 56 -87 8 -8 153 236 153 258 0 11 -319 572 -340 598 -11 13 -64 15 -411
15 -258 0 -399 -4 -399 -10z m688 -333 c23 -40 42 -76 42 -80 0 -4 -42 -7 -94
-7 l-94 0 -41 75 c-23 41 -41 77 -41 80 0 3 42 5 93 5 l93 0 42 -73z"/>
<path d="M4597 2162 c-3 -4 24 -57 59 -117 35 -61 103 -179 151 -263 48 -84
91 -151 97 -149 11 4 306 513 306 528 0 11 -607 13 -613 1z"/>
<path d="M5277 2148 c-8 -13 -74 -129 -147 -258 -73 -129 -176 -309 -230 -400
-53 -91 -112 -192 -130 -225 -18 -33 -87 -151 -152 -263 -65 -112 -118 -207
-118 -212 0 -15 142 -260 150 -260 11 0 50 63 167 270 55 96 125 218 155 270
31 52 91 157 135 232 44 76 86 144 93 153 11 13 50 15 264 15 l251 1 94 167
c52 92 141 247 198 344 57 97 103 179 103 182 0 3 -184 6 -410 6 l-410 0 -13
-22z m363 -260 c0 -6 -18 -42 -40 -80 l-41 -68 -100 0 -101 0 20 33 c11 17 32
53 47 80 l27 47 94 0 c66 0 94 -4 94 -12z"/>
<path d="M16558 1828 l-3 -113 -68 -3 -68 -3 3 -82 3 -82 65 -5 65 -5 5 -296
5 -296 30 -48 c46 -74 103 -100 220 -100 49 0 102 3 118 8 27 7 27 8 27 97 l0
90 -60 0 c-102 0 -100 -6 -100 295 l0 255 75 0 75 0 0 85 0 84 -72 3 -73 3 -5
110 -5 110 -117 3 -117 3 -3 -113z"/>
<path d="M7973 1715 c-137 -38 -234 -132 -245 -235 l-3 -35 119 0 120 0 8 32
c13 49 51 73 115 73 30 0 67 -7 82 -15 34 -17 61 -78 61 -135 l0 -40 -97 0
c-275 -1 -425 -102 -427 -290 -1 -86 16 -130 70 -186 56 -57 120 -86 206 -92
83 -6 144 10 209 54 l48 33 11 -34 12 -35 123 0 124 0 -16 43 c-14 34 -18 99
-22 347 -6 280 -8 309 -27 350 -29 62 -77 108 -153 143 -56 26 -78 31 -165 34
-68 2 -118 -2 -153 -12z m257 -576 c0 -80 -1 -82 -34 -114 -59 -55 -160 -68
-214 -26 -32 23 -43 78 -26 127 23 68 72 92 197 93 l77 1 0 -81z"/>
<path d="M9710 1716 c-135 -37 -237 -134 -243 -232 l-2 -39 112 -3 113 -3 16
41 c21 51 56 70 130 70 50 0 59 -3 88 -32 26 -26 34 -45 40 -86 4 -29 4 -56 2
-61 -3 -5 -63 -11 -133 -13 -198 -8 -300 -54 -359 -160 -25 -46 -29 -63 -29
-133 0 -90 19 -137 77 -192 101 -97 295 -110 405 -26 25 19 46 33 48 31 1 -2
7 -16 12 -33 l10 -30 121 -3 c74 -2 122 1 122 7 0 5 -5 22 -12 38 -8 19 -14
130 -18 333 -5 290 -7 307 -28 355 -40 86 -111 143 -214 171 -65 17 -197 17
-258 0z m258 -571 c4 -83 -8 -108 -63 -140 -109 -62 -225 -24 -225 74 0 92 75
142 205 138 l80 -2 3 -70z"/>
<path d="M10795 1721 c-45 -11 -107 -46 -134 -75 -28 -30 -41 -21 -41 32 l0
32 -115 0 -115 0 0 -450 0 -450 120 0 120 0 0 319 c0 308 1 319 21 345 31 40
76 59 138 58 59 0 96 -20 118 -63 9 -18 13 -109 13 -341 l0 -318 120 0 120 0
0 311 c0 299 1 313 21 346 11 18 35 41 52 50 41 21 130 20 163 -2 50 -33 54
-59 54 -395 l0 -310 121 0 120 0 -3 353 c-3 314 -6 357 -22 401 -43 112 -150
173 -290 164 -88 -6 -151 -33 -206 -88 l-42 -42 -16 24 c-30 44 -72 76 -119
92 -48 16 -145 20 -198 7z"/>
<path d="M12234 1714 c-23 -8 -60 -31 -83 -50 -41 -36 -41 -36 -41 -11 0 55
-4 57 -121 57 l-109 0 0 -625 0 -625 120 0 120 0 0 209 0 210 51 -34 c59 -40
105 -55 175 -55 161 0 284 114 329 302 17 71 20 240 6 314 -27 141 -94 244
-187 290 -70 34 -193 43 -260 18z m127 -200 c62 -31 94 -134 86 -278 -6 -116
-20 -167 -57 -206 -57 -61 -172 -60 -237 3 l-33 31 0 197 0 197 35 31 c20 17
48 33 63 37 15 3 32 7 37 9 16 5 78 -7 106 -21z"/>
<path d="M13127 1720 c-143 -36 -261 -163 -297 -320 -19 -80 -17 -233 4 -305
44 -149 165 -263 314 -294 123 -26 267 -6 352 49 54 34 114 94 109 108 -2 6
-28 35 -57 66 l-53 56 -40 -34 c-99 -85 -278 -79 -349 11 -24 31 -50 87 -50
109 0 11 53 14 288 16 l287 3 -3 100 c-5 212 -70 338 -208 406 -57 28 -76 32
-162 35 -53 2 -114 -1 -135 -6z m203 -209 c31 -21 70 -96 70 -133 l0 -28 -170
0 -170 0 6 28 c18 72 68 136 120 152 39 12 114 3 144 -19z"/>
<path d="M14173 1716 c-49 -16 -102 -47 -128 -76 -27 -30 -35 -25 -35 25 l0
45 -115 0 -115 0 0 -450 0 -450 120 0 120 0 0 319 c0 308 1 319 21 345 30 39
77 59 134 59 66 0 106 -20 127 -63 16 -31 18 -70 18 -347 l0 -313 120 0 120 0
0 325 c0 332 -6 397 -41 467 -52 103 -211 156 -346 114z"/>
<path d="M15848 1716 c-183 -53 -297 -229 -298 -459 0 -213 96 -370 267 -438
49 -20 77 -23 178 -23 138 0 194 16 279 81 83 64 84 68 16 143 l-58 65 -34
-31 c-43 -41 -67 -53 -131 -64 -128 -24 -246 45 -264 154 l-6 36 284 2 284 3
3 78 c3 91 -7 158 -39 242 -29 79 -122 174 -194 199 -66 24 -224 30 -287 12z
m213 -202 c32 -16 69 -87 69 -132 l0 -32 -165 0 c-151 0 -165 2 -165 18 0 24
44 114 63 131 49 40 137 47 198 15z"/>
<path d="M8550 1708 c0 -2 59 -172 131 -378 203 -580 186 -519 164 -575 -10
-26 -30 -61 -44 -78 -23 -25 -37 -31 -92 -36 l-64 -6 -3 -88 c-3 -86 -2 -87
23 -97 34 -13 130 -13 177 0 56 16 117 68 152 130 17 30 115 296 217 590 l186
535 -125 3 c-69 1 -126 1 -129 -1 -2 -2 -30 -94 -62 -203 -104 -354 -103 -349
-111 -333 -8 13 -160 522 -160 534 0 3 -58 5 -130 5 -71 0 -130 -1 -130 -2z"/>
<path d="M14660 1704 c0 -4 70 -208 156 -454 l155 -447 -23 -58 c-30 -73 -62
-98 -136 -105 l-57 -5 -3 -91 -3 -91 32 -7 c55 -11 135 -7 180 9 50 18 110 72
144 130 20 34 395 1095 395 1118 0 4 -57 6 -127 5 l-127 -3 -51 -175 c-28 -96
-64 -219 -80 -273 -16 -53 -31 -95 -34 -92 -3 3 -42 126 -86 273 l-80 267
-128 3 c-70 1 -127 0 -127 -4z"/>
<path d="M3816 1664 c-16 -60 -23 -225 -15 -314 32 -345 218 -650 510 -840 84
-54 253 -129 265 -118 2 3 -10 33 -28 66 -28 51 -41 64 -83 84 -142 66 -298
199 -384 327 -119 175 -172 349 -177 573 -3 136 -3 138 -36 193 -18 30 -36 55
-39 55 -4 0 -10 -12 -13 -26z"/>
<path d="M5941 1627 c-34 -61 -35 -65 -37 -187 -3 -178 -33 -299 -114 -460
-90 -179 -255 -342 -436 -433 -41 -21 -58 -37 -83 -81 -52 -93 -47 -93 114
-17 343 163 577 499 616 883 11 110 -1 332 -19 350 -4 4 -22 -21 -41 -55z"/>
<path d="M5122 1213 c-105 -180 -295 -510 -391 -677 l-45 -79 28 -51 c63 -114
190 -326 195 -326 3 0 45 69 93 153 47 84 121 213 164 287 42 74 163 284 267
465 105 182 201 349 214 373 l25 42 -220 0 -220 0 -110 -187z"/>
</g>
</svg>
