<svg xmlns="http://www.w3.org/2000/svg" width="2020" height="260" viewBox="0 0 2020 260" id="aympnyt-logo">
  <path fill="#currentColor" opacity="1.000000" stroke="none" d="
M563.821106,114.454361 
	C550.855957,114.456322 538.362671,114.591637 525.875488,114.375374 
	C522.395203,114.315102 520.555176,115.503464 518.845398,118.477310 
	C502.009552,147.759735 485.018585,176.952988 468.066071,206.168320 
	C467.660553,206.867188 467.190247,207.528458 466.200958,209.054382 
	C464.887085,206.988724 463.839417,205.463562 462.915131,203.866959 
	C459.329193,197.672546 455.594116,191.551376 452.349518,185.181366 
	C451.505829,183.525009 451.459290,180.617935 452.363586,179.040146 
	C471.812012,145.107666 491.472717,111.296967 511.032166,77.427948 
	C516.852600,67.349380 522.407471,57.116585 528.308594,47.086578 
	C529.129761,45.690880 531.238831,44.208263 532.762695,44.196491 
	C558.406982,43.998413 584.053040,44.025116 609.698669,44.021305 
	C610.301941,44.021214 610.905273,44.244549 612.223083,44.504765 
	C607.883240,52.047001 603.767883,59.195442 599.656006,66.345894 
	C591.778809,80.044220 583.678284,93.621468 576.145752,107.506798 
	C573.384705,112.596512 570.392700,115.776024 563.821106,114.454361 
M556.471802,71.274185 
	C554.319702,71.273674 552.128662,71.023056 550.027527,71.349968 
	C548.273193,71.622910 545.908203,72.079048 545.058960,73.311882 
	C542.180725,77.490227 539.855408,82.049454 536.753967,87.446091 
	C543.589233,87.446091 549.473755,87.467728 555.357605,87.413033 
	C555.954285,87.407494 556.827087,87.111877 557.098206,86.664154 
	C560.014771,81.847946 562.836060,76.974068 566.177002,71.273949 
	C562.333008,71.273949 559.878723,71.273949 556.471802,71.274185 
z"/>
  <path fill="#currentColor" opacity="1.000000" stroke="none" d="
M1130.505127,89.319778 
	C1136.518799,88.950272 1142.280029,87.766953 1147.730957,88.604309 
	C1161.617920,90.737602 1169.353516,100.649734 1169.772949,117.023392 
	C1170.267822,136.344101 1169.988281,155.684677 1170.043335,175.016632 
	C1170.047974,176.653839 1170.043945,178.291061 1170.043945,180.227509 
	C1161.878174,180.227509 1154.129517,180.227509 1145.915649,180.227509 
	C1145.915649,176.828568 1145.916626,173.697708 1145.915405,170.566864 
	C1145.909180,154.233902 1145.998047,137.900101 1145.855469,121.568329 
	C1145.782837,113.271103 1143.314941,109.698242 1137.302612,108.093018 
	C1129.772217,106.082504 1122.406616,108.518799 1118.934937,114.636879 
	C1117.777710,116.676270 1117.242676,119.333534 1117.226318,121.713829 
	C1117.093506,141.031372 1117.151733,160.350220 1117.151733,180.097534 
	C1109.186279,180.097534 1101.488159,180.097534 1093.167114,180.097534 
	C1093.167114,177.298798 1093.168335,174.527588 1093.167114,171.756378 
	C1093.159668,155.256729 1093.272949,138.755844 1093.104126,122.257828 
	C1092.976318,109.759918 1083.309204,103.758141 1071.927734,108.993874 
	C1067.069458,111.228882 1064.187134,114.658752 1064.262573,120.627045 
	C1064.511475,140.285126 1064.356323,159.948334 1064.356323,180.069580 
	C1056.344482,180.069580 1048.503296,180.069580 1040.476440,180.069580 
	C1040.476440,149.976242 1040.476440,120.053398 1040.476440,89.813995 
	C1047.972900,89.813995 1055.228394,89.813995 1062.654419,89.813995 
	C1063.046021,92.649406 1063.425659,95.397911 1063.947266,99.175125 
	C1071.293579,91.278236 1079.766602,87.878372 1089.737061,87.922310 
	C1100.027954,87.967674 1108.257812,91.537743 1113.001953,100.068062 
	C1118.801758,96.460655 1124.456543,92.943420 1130.505127,89.319778 
z"/>
  <path fill="#currentColor" opacity="1.000000" stroke="none" d="
M438.935120,162.150848 
	C416.370758,122.966995 393.982666,84.104919 371.176514,44.517147 
	C373.811066,44.360329 375.393982,44.185692 376.977051,44.183941 
	C400.617920,44.157814 424.259003,44.205143 447.899323,44.085167 
	C451.041656,44.069221 453.088867,44.788471 454.737701,47.712936 
	C465.116180,66.120636 475.697723,84.413773 486.120117,102.796936 
	C486.759186,103.924126 487.254089,105.845749 486.730957,106.807541 
	C482.153900,115.223083 477.329651,123.504158 472.142609,132.589035 
	C468.973846,127.169083 466.441010,122.327553 463.369537,117.856041 
	C462.275909,116.263947 459.949127,114.798752 458.056549,114.617142 
	C453.288849,114.159622 448.447876,114.465675 442.529572,114.465675 
	C443.656036,116.684433 444.352234,118.227318 445.194214,119.686020 
	C450.268860,128.477692 455.442932,137.213089 460.406952,146.066422 
	C461.204468,147.488876 461.935211,149.849945 461.302429,151.028229 
	C456.925476,159.178253 452.179077,167.129868 446.992493,176.113113 
	C444.015045,170.959839 441.563202,166.716217 438.935120,162.150848 
M442.074310,80.422783 
	C441.010193,78.540024 440.106262,76.538918 438.830597,74.812439 
	C437.834045,73.463654 436.437775,71.544907 435.112366,71.455101 
	C429.560547,71.078964 423.968506,71.296432 417.396545,71.296432 
	C420.505005,76.767998 423.068329,81.356857 425.734161,85.885384 
	C426.112427,86.527916 426.981293,87.285782 427.636108,87.298119 
	C433.466644,87.407944 439.300079,87.362053 445.849915,87.362053 
	C444.332397,84.550903 443.393524,82.811653 442.074310,80.422783 
z"/>
  <path fill="#currentColor" opacity="1.000000" stroke="none" d="
M1188.932739,165.000000 
	C1188.932739,139.704422 1188.932739,114.908836 1188.932739,89.811806 
	C1196.487549,89.811806 1203.587158,89.811806 1211.103394,89.811806 
	C1211.457397,92.121864 1211.823486,94.510483 1212.268433,97.414307 
	C1213.241821,96.812035 1213.942993,96.500229 1214.495972,96.018341 
	C1231.162598,81.493744 1255.689087,86.315063 1264.666504,106.531204 
	C1272.975220,125.241615 1272.982056,144.548264 1264.445923,163.226166 
	C1255.246582,183.355865 1232.625122,188.261551 1215.193237,174.511124 
	C1214.816895,174.214294 1214.346191,174.037018 1213.241333,173.433640 
	C1213.241333,187.512634 1213.241333,201.189331 1213.241333,215.174866 
	C1204.858276,215.174866 1197.119751,215.174866 1188.932739,215.174866 
	C1188.932739,198.432251 1188.932739,181.966125 1188.932739,165.000000 
M1232.541016,162.336731 
	C1237.536133,161.398453 1241.077026,158.507828 1242.839478,153.841492 
	C1247.342407,141.918243 1247.891846,129.776093 1243.423218,117.759338 
	C1239.443115,107.056396 1225.606934,103.649796 1217.121216,111.378334 
	C1214.959229,113.347473 1213.318604,116.944099 1213.172607,119.879166 
	C1212.685791,129.669418 1213.228516,139.507080 1212.892822,149.310013 
	C1212.696777,155.034637 1215.407471,158.765884 1220.114502,160.622864 
	C1223.674194,162.027100 1227.842773,161.887695 1232.541016,162.336731 
z"/>
  <path fill="#currentColor" opacity="1.000000" stroke="none" d="
M548.715210,154.792587 
	C531.386597,184.943420 514.250061,214.780670 497.109283,244.615448 
	C495.480286,247.450912 493.824524,250.271057 491.709564,253.909698 
	C486.602417,245.041763 482.609100,236.392624 477.055664,228.899826 
	C470.137970,219.566437 470.524475,212.096802 476.793396,202.088287 
	C492.677429,176.728912 507.036896,150.416031 522.142395,124.564163 
	C523.076904,122.964806 525.162109,121.014282 526.749146,120.980659 
	C540.206360,120.695534 553.672180,120.817757 568.270508,120.817757 
	C561.546997,132.505066 555.226562,143.491684 548.715210,154.792587 
z"/>
  <path fill="#currentColor" opacity="1.000000" stroke="none" d="
M828.316650,90.695084 
	C841.778564,95.831566 847.908752,105.589630 848.003113,119.360046 
	C848.086426,131.515656 847.763245,143.680634 848.140625,155.825287 
	C848.385986,163.722427 849.565247,171.590546 850.428467,180.531891 
	C848.335876,180.531891 845.153015,180.532028 841.970215,180.531845 
	C839.638855,180.531708 837.292908,180.363220 834.979126,180.564713 
	C829.702026,181.024261 825.121460,180.640259 825.262878,172.815567 
	C823.511780,174.047226 822.475769,174.696533 821.527222,175.455246 
	C810.200562,184.515274 791.820129,184.278900 780.739868,174.913773 
	C765.208252,161.786301 768.893616,137.174637 788.086853,129.506470 
	C795.020874,126.736130 802.918396,126.203537 810.447327,125.164467 
	C814.651978,124.584190 819.002380,125.060150 823.135925,125.060150 
	C825.889709,111.655998 819.165222,104.082092 806.919373,105.996246 
	C802.224792,106.730049 798.963745,109.002731 797.688293,113.872009 
	C797.401794,114.965851 796.002197,116.541061 795.072815,116.570656 
	C787.974548,116.796684 780.865845,116.694633 773.332764,116.694633 
	C773.664551,108.031952 777.206848,101.618385 783.361389,96.871056 
	C796.950012,86.389442 812.146790,86.003914 828.316650,90.695084 
M795.836060,149.550156 
	C794.833862,158.609894 798.490967,163.384232 806.724792,163.645905 
	C812.084839,163.816223 816.939697,162.318924 820.842712,158.547546 
	C822.100891,157.331741 823.605530,155.664322 823.724060,154.106613 
	C824.095764,149.223328 823.860718,144.293839 823.860718,138.725082 
	C818.098511,138.982376 812.975403,138.928986 807.925720,139.511520 
	C802.238831,140.167542 798.084167,143.248093 795.836060,149.550156 
z"/>
  <path fill="#currentColor" opacity="1.000000" stroke="none" d="
M1584.194946,142.812561 
	C1580.818848,142.515076 1580.413696,143.875946 1580.977783,146.423904 
	C1582.670776,154.070557 1589.052368,160.710526 1596.805664,162.042404 
	C1606.337769,163.679794 1615.055054,161.943222 1622.153564,154.797501 
	C1622.722290,154.224976 1623.348633,153.709518 1624.376587,152.780075 
	C1628.285767,157.097595 1632.038574,161.242462 1636.053833,165.677155 
	C1629.612671,173.961243 1621.558716,179.045242 1611.549072,181.105209 
	C1588.413940,185.866394 1567.511963,176.535919 1559.694214,156.526108 
	C1552.936768,139.230591 1553.973145,121.706619 1563.977539,105.636871 
	C1572.984375,91.169655 1589.508179,85.173668 1607.772827,88.802887 
	C1623.269287,91.882072 1633.860962,102.889748 1636.752319,119.925682 
	C1637.989014,127.212959 1637.923096,134.721298 1638.497559,142.811615 
	C1619.891846,142.811615 1602.281738,142.811615 1584.194946,142.812561 
M1601.652954,107.646950 
	C1589.037842,106.734863 1580.321411,114.613731 1581.490845,126.293015 
	C1586.911255,126.293015 1592.376831,126.293007 1597.842285,126.293007 
	C1603.273315,126.293007 1608.704224,126.293015 1614.074707,126.293015 
	C1614.571289,116.146652 1610.831299,110.428711 1601.652954,107.646950 
z"/>
  <path fill="#currentColor" opacity="1.000000" stroke="none" d="
M1358.503662,170.441132 
	C1341.405029,187.936127 1300.803345,187.389206 1287.736694,159.686569 
	C1278.732300,140.595779 1279.946411,121.297684 1291.976074,103.707626 
	C1301.569336,89.680031 1319.786255,84.545273 1337.643677,89.480423 
	C1352.059937,93.464523 1362.383667,106.581665 1363.986938,123.680267 
	C1364.556641,129.755432 1364.078125,135.928864 1364.078125,142.624603 
	C1345.368774,142.624603 1326.483276,142.624603 1307.629395,142.624603 
	C1307.295044,150.105743 1312.262451,157.659500 1319.139771,160.731293 
	C1329.013184,165.141296 1340.806763,162.287125 1350.936157,152.785995 
	C1354.386108,156.582336 1357.992065,160.250198 1361.234985,164.214966 
	C1363.785645,167.333191 1359.787598,168.265579 1358.503662,170.441132 
M1311.972534,113.550331 
	C1310.201660,117.505890 1308.430664,121.461441 1306.430664,125.928665 
	C1318.722290,125.928665 1329.754639,125.928665 1340.770508,125.928665 
	C1341.006836,117.243423 1337.771362,111.053566 1331.939209,108.645729 
	C1325.046875,105.800171 1317.695068,107.415352 1311.972534,113.550331 
z"/>
  <path fill="#currentColor" opacity="1.000000" stroke="none" d="
M947.447998,142.591705 
	C954.390442,129.338226 966.574158,126.416206 979.529358,125.312904 
	C985.274475,124.823631 991.095947,125.230354 996.702881,125.230354 
	C998.993164,115.184372 995.455627,107.799835 988.086914,106.149246 
	C978.814453,104.072243 972.848328,107.478958 970.601440,116.400711 
	C962.953918,116.400711 955.223938,116.400711 947.101501,116.400711 
	C946.975952,109.921783 949.400146,104.675362 953.499084,100.088104 
	C967.143066,84.818466 998.286011,83.498650 1013.246216,97.513466 
	C1019.830994,103.682068 1021.644409,111.665031 1021.758850,120.201485 
	C1021.894958,130.354034 1021.554138,140.517227 1021.869324,150.661865 
	C1022.170593,160.359055 1023.048523,170.038345 1023.723389,180.506958 
	C1017.472412,180.506958 1009.881226,180.889420 1002.387146,180.206741 
	C1000.751587,180.057739 999.462646,176.103699 997.831116,173.624023 
	C983.249268,184.994324 967.607422,186.134995 952.791138,173.281631 
	C943.362000,165.101685 943.201111,154.134979 947.447998,142.591705 
M986.277466,163.074982 
	C999.076660,158.055649 998.560730,154.992844 996.778748,138.368942 
	C990.562256,139.017593 984.186096,139.021271 978.165710,140.486786 
	C971.383972,142.137680 967.695862,149.310059 969.190796,155.718628 
	C970.450989,161.121017 975.363342,164.033829 982.514526,163.592422 
	C983.509033,163.531036 984.496765,163.359100 986.277466,163.074982 
z"/>
  <path fill="#currentColor" opacity="1.000000" stroke="none" d="
M886.103455,177.073105 
	C875.999512,147.944153 866.013000,119.195549 855.707947,89.530045 
	C864.148071,89.530045 871.898376,89.349243 879.621643,89.724533 
	C880.783142,89.780975 882.332275,92.279305 882.831787,93.914009 
	C887.407532,108.888237 891.786011,123.922676 896.236877,138.935165 
	C896.747864,140.658463 897.349731,142.354843 898.327515,145.340530 
	C899.256958,142.913223 899.822266,141.684982 900.203979,140.402130 
	C904.763550,125.080132 909.427917,109.786972 913.738770,94.394958 
	C914.765991,90.727432 916.174866,89.202568 920.143738,89.409164 
	C926.772766,89.754219 933.432739,89.503349 940.691589,89.503349 
	C940.202026,91.323456 939.919861,92.703384 939.462952,94.022812 
	C928.019897,127.067741 916.589539,160.117188 905.055725,193.130463 
	C903.799683,196.725662 902.195618,200.259964 900.294006,203.557922 
	C893.706421,214.983139 880.582153,220.089127 867.967834,216.153107 
	C866.798218,215.788162 865.309509,214.107864 865.239746,212.961029 
	C864.938660,208.010422 865.110962,203.031052 865.110962,197.619766 
	C871.965027,197.178741 879.365967,198.100281 883.016541,190.967987 
	C885.120483,186.857269 888.462402,182.723801 886.103455,177.073105 
z"/>
  <path fill="#currentColor" opacity="1.000000" stroke="none" d="
M1499.452393,214.616074 
	C1492.570068,215.350464 1486.036743,216.044067 1479.485107,216.413712 
	C1477.059326,216.550598 1475.623169,215.278976 1475.769531,212.364563 
	C1476.009888,207.580765 1475.834595,202.776108 1475.834595,197.851807 
	C1477.041260,197.655838 1477.850830,197.363174 1478.634277,197.421631 
	C1488.252197,198.139450 1494.335449,193.835022 1496.493286,184.478561 
	C1497.084106,181.916443 1497.288208,178.858582 1496.463989,176.438919 
	C1487.231079,149.334259 1477.760620,122.310486 1468.360596,95.262703 
	C1467.817383,93.699715 1467.330444,92.117218 1466.524780,89.646667 
	C1474.983276,89.646667 1483.027588,89.525108 1491.056274,89.822998 
	C1491.918091,89.854980 1493.013672,92.230179 1493.452759,93.683968 
	C1498.025513,108.820671 1502.480591,123.992958 1506.986938,139.149811 
	C1507.444336,140.688187 1508.025024,142.189957 1509.064087,145.204605 
	C1510.109497,142.366287 1510.773071,140.833466 1511.244385,139.243668 
	C1515.598389,124.555817 1520.147949,109.919456 1524.116089,95.127388 
	C1525.370972,90.449234 1527.443604,89.100220 1532.040771,89.401878 
	C1538.279419,89.811234 1544.564941,89.503792 1551.453003,89.503792 
	C1550.726562,91.941055 1550.285645,93.655296 1549.708252,95.322250 
	C1538.429565,127.887917 1527.166626,160.459091 1515.822510,193.002014 
	C1512.755249,201.801346 1508.611084,209.896652 1499.452393,214.616074 
z"/>
  <path fill="#currentColor" opacity="1.000000" stroke="none" d="
M1456.638550,113.563385 
	C1456.706787,135.968277 1456.706787,157.926819 1456.706787,180.207428 
	C1449.006958,180.207428 1441.261108,180.207428 1432.937744,180.207428 
	C1432.937744,178.331024 1432.937866,176.561188 1432.937622,174.791336 
	C1432.935669,157.304855 1432.969849,139.818268 1432.916382,122.331940 
	C1432.889893,113.657333 1430.653809,110.017563 1424.549072,108.225624 
	C1416.781616,105.945610 1408.146851,108.486122 1404.468018,114.468307 
	C1403.506470,116.032120 1403.196899,118.212662 1403.187378,120.112907 
	C1403.095947,138.431610 1403.132812,156.750961 1403.132812,175.070129 
	C1403.132812,176.710388 1403.132812,178.350647 1403.132812,180.259048 
	C1394.994385,180.259048 1387.239502,180.259048 1379.236816,180.259048 
	C1379.236816,150.139282 1379.236816,120.223465 1379.236816,89.906570 
	C1386.442505,89.906570 1393.654907,89.906570 1401.493774,89.906570 
	C1401.810425,92.626518 1402.143188,95.485519 1402.618896,99.572380 
	C1411.846191,89.632011 1422.745361,86.395981 1435.068726,88.456764 
	C1447.647461,90.560265 1453.951660,98.020584 1456.638550,113.563385 
z"/>
  <path fill="#currentColor" opacity="1.000000" stroke="none" d="
M1643.307373,99.941147 
	C1643.307373,96.347565 1643.307373,93.228119 1643.307373,89.553047 
	C1647.926270,89.553047 1652.013794,89.553047 1656.623291,89.553047 
	C1656.623291,81.937691 1656.623291,74.863503 1656.623291,67.461815 
	C1664.741943,67.461815 1672.328125,67.461815 1680.620972,67.461815 
	C1680.620972,74.536911 1680.620972,81.744766 1680.620972,89.364441 
	C1686.079224,89.364441 1690.850708,89.364441 1695.953125,89.364441 
	C1695.953125,95.376785 1695.953125,100.961052 1695.953125,107.052170 
	C1691.166260,107.052170 1686.415894,107.052170 1682.084961,107.052170 
	C1681.457886,107.790291 1681.069580,108.033836 1681.068481,108.279144 
	C1680.997681,123.763885 1680.886230,139.249115 1680.959229,154.733475 
	C1680.982056,159.585831 1683.971313,161.925140 1688.650757,162.139389 
	C1691.276489,162.259613 1693.912354,162.161026 1697.180176,162.161026 
	C1697.180176,167.312988 1697.357666,172.428253 1697.042603,177.513016 
	C1696.972778,178.639496 1695.226807,180.506439 1694.144653,180.587280 
	C1687.720825,181.067154 1681.117432,182.077408 1674.853027,181.108047 
	C1663.905396,179.414017 1657.614014,172.080170 1657.170532,160.659378 
	C1656.563110,145.018234 1656.836548,129.342865 1656.736328,113.682121 
	C1656.723755,111.718224 1656.734619,109.754189 1656.734619,107.268768 
	C1652.142822,107.268768 1648.051392,107.268768 1643.307251,107.268768 
	C1643.307251,104.638489 1643.307251,102.526886 1643.307373,99.941147 
z"/>
  <path fill="#currentColor" opacity="1.000000" stroke="none" d="
M493.452148,95.598061 
	C492.691223,96.700600 492.140503,97.499176 491.084656,99.030159 
	C480.559814,80.794525 470.319427,63.051769 459.643463,44.554253 
	C480.977722,44.554253 501.415436,44.554253 522.688843,44.554253 
	C512.878357,61.703503 503.270355,78.498802 493.452148,95.598061 
z"/>
  <path fill="#currentColor" opacity="1.000000" stroke="none" d="
M425.967712,205.981262 
	C385.747406,176.273193 373.821350,126.539597 383.977264,91.066628 
	C387.512360,97.806190 391.812805,102.772667 391.227112,111.515251 
	C389.574493,136.182938 397.132568,158.678619 412.316742,178.386475 
	C422.247864,191.276306 435.067474,200.406158 449.319336,208.122620 
	C453.867126,210.584976 456.512451,216.561096 459.436798,221.551071 
	C446.903290,219.077927 436.201904,213.438828 425.967712,205.981262 
z"/>
  <path fill="#currentColor" opacity="1.000000" stroke="none" d="
M579.878052,163.600952 
	C588.403015,147.722427 592.011536,131.001495 591.840454,113.482452 
	C591.747498,103.963150 592.491760,100.738159 598.804688,92.485672 
	C612.361267,142.129837 582.364075,204.842575 524.184814,221.977112 
	C527.884277,215.656296 529.538696,209.313812 536.516174,205.980011 
	C555.566650,196.877792 569.752502,182.512390 579.878052,163.600952 
z"/>
  <path fill="#currentColor" opacity="1.000000" stroke="none" d="
M447.007751,25.836771 
	C438.753235,31.723019 430.046753,33.941486 420.520935,31.792641 
	C452.375244,0.043347 519.364319,-7.154821 563.264404,32.223412 
	C555.371460,31.828293 548.318176,33.424767 541.195374,29.011545 
	C525.637512,19.372087 508.210144,15.163909 490.000427,15.354261 
	C475.112579,15.509888 460.798523,19.066437 447.007751,25.836771 
z"/>
</svg>
