<?xml version="1.0" encoding="UTF-8"?>
<!DOCTYPE svg PUBLIC "-//W3C//DTD SVG 1.1//EN" "http://www.w3.org/Graphics/SVG/1.1/DTD/svg11.dtd">
<svg xmlns="http://www.w3.org/2000/svg" version="1.1" width="2020px" height="260px" style="shape-rendering:geometricPrecision; text-rendering:geometricPrecision; image-rendering:optimizeQuality; fill-rule:evenodd; clip-rule:evenodd" xmlns:xlink="http://www.w3.org/1999/xlink">
<g><path style="opacity:0.762" fill="#000000" d="M 479.5,2.5 C 503.695,1.04907 526.361,6.21574 547.5,18C 553.416,21.4535 558.749,25.6202 563.5,30.5C 563.291,31.086 562.957,31.586 562.5,32C 556.5,32.6667 550.5,32.6667 544.5,32C 508.071,10.0135 471.738,10.0135 435.5,32C 429.167,32.6667 422.833,32.6667 416.5,32C 415.549,31.2825 415.383,30.4491 416,29.5C 434.69,14.5517 455.857,5.55169 479.5,2.5 Z"/></g>
<g><path style="opacity:0.004" fill="#000000" d="M 352.5,8.5 C 353.833,9.16667 353.833,9.16667 352.5,8.5 Z"/></g>
<g><path style="opacity:0.053" fill="#000000" d="M 361.5,35.5 C 363.199,35.3398 364.866,35.5065 366.5,36C 364.415,38.1391 362.749,37.9725 361.5,35.5 Z"/></g>
<g><path style="opacity:0.896" fill="#000000" d="M 368.5,41.5 C 396.508,41.1669 424.508,41.5002 452.5,42.5C 464.573,62.8171 476.239,83.3171 487.5,104C 483.396,111.462 479.229,118.962 475,126.5C 473.987,128.846 472.321,130.513 470,131.5C 469.228,131.355 468.561,131.022 468,130.5C 464.634,125.297 461.468,119.964 458.5,114.5C 453.5,113.167 448.5,113.167 443.5,114.5C 449.91,125.488 455.91,136.655 461.5,148C 456.989,156.852 452.322,165.686 447.5,174.5C 446.277,175.614 444.944,175.781 443.5,175C 418.793,131.752 393.96,88.5851 369,45.5C 368.51,44.2068 368.343,42.8734 368.5,41.5 Z M 418.5,71.5 C 423.875,71.1718 429.208,71.5052 434.5,72.5C 436.5,76.1667 438.5,79.8333 440.5,83.5C 435.5,84.8333 430.5,84.8333 425.5,83.5C 423.143,79.445 420.81,75.445 418.5,71.5 Z"/></g>
<g><path style="opacity:0.852" fill="#000000" d="M 456.5,41.5 C 478.5,41.5 500.5,41.5 522.5,41.5C 513.413,60.3316 503.247,78.6649 492,96.5C 491.261,97.5742 490.261,98.2409 489,98.5C 477.925,82.0284 467.591,65.0284 458,47.5C 456.872,45.6547 456.372,43.6547 456.5,41.5 Z"/></g>
<g><path style="opacity:0.898" fill="#000000" d="M 526.5,41.5 C 555.167,41.5 583.833,41.5 612.5,41.5C 612.245,44.0163 611.411,46.3496 610,48.5C 597.613,70.1141 585.113,91.6141 572.5,113C 555.157,113.167 537.824,113.667 520.5,114.5C 503.4,143.702 486.567,173.036 470,202.5C 468.663,205.002 466.829,207.002 464.5,208.5C 463.558,208.392 462.725,208.059 462,207.5C 457.08,199.328 452.413,190.995 448,182.5C 447.333,181.167 447.333,179.833 448,178.5C 474.71,133.072 500.876,87.4057 526.5,41.5 Z M 545.5,71.5 C 551.176,71.3339 556.843,71.5006 562.5,72C 559.833,76 557.167,80 554.5,84C 549.136,84.8295 543.802,84.6628 538.5,83.5C 540.845,79.4725 543.178,75.4725 545.5,71.5 Z"/></g>
<g><path style="opacity:0.891" fill="#000000" d="M 1654.5,64.5 C 1663.17,64.3336 1671.84,64.5002 1680.5,65C 1681.48,72.4129 1681.81,79.9129 1681.5,87.5C 1686.17,87.5 1690.83,87.5 1695.5,87.5C 1695.5,93.8333 1695.5,100.167 1695.5,106.5C 1690.83,106.5 1686.17,106.5 1681.5,106.5C 1681.33,123.17 1681.5,139.837 1682,156.5C 1682.5,157.667 1683.33,158.5 1684.5,159C 1688.49,159.499 1692.49,159.666 1696.5,159.5C 1697.1,166.618 1696.44,173.452 1694.5,180C 1683.74,182.767 1673.41,181.767 1663.5,177C 1658.48,173.456 1655.64,168.623 1655,162.5C 1654.5,143.836 1654.33,125.17 1654.5,106.5C 1649.83,106.5 1645.17,106.5 1640.5,106.5C 1640.5,100.167 1640.5,93.8333 1640.5,87.5C 1645.17,87.5 1649.83,87.5 1654.5,87.5C 1654.5,79.8333 1654.5,72.1667 1654.5,64.5 Z"/></g>
<g><path style="opacity:0.878" fill="#000000" d="M 801.5,85.5 C 815.469,83.79 828.135,86.9567 839.5,95C 843.184,99.1999 845.684,104.033 847,109.5C 847.333,126.833 847.667,144.167 848,161.5C 848.541,167.658 849.708,173.658 851.5,179.5C 842.167,179.5 832.833,179.5 823.5,179.5C 823.617,177.516 822.95,175.85 821.5,174.5C 807.906,183.306 793.906,183.806 779.5,176C 764.767,162.269 763.767,147.603 776.5,132C 781.775,127.793 787.775,125.127 794.5,124C 803.12,122.748 811.787,122.248 820.5,122.5C 821.448,108.275 815.114,103.108 801.5,107C 798.786,109.43 797.119,112.43 796.5,116C 787.588,116.816 778.755,116.65 770,115.5C 770.625,102.517 777.125,93.6839 789.5,89C 793.543,87.5086 797.543,86.3419 801.5,85.5 Z M 807.5,138.5 C 811.833,138.5 816.167,138.5 820.5,138.5C 823.938,151.536 819.105,159.203 806,161.5C 795.104,159.103 792.604,153.103 798.5,143.5C 801.154,141.011 804.154,139.344 807.5,138.5 Z"/></g>
<g><path style="opacity:0.895" fill="#000000" d="M 975.5,85.5 C 985.073,84.8476 994.406,86.0142 1003.5,89C 1012.44,93.028 1017.94,99.8613 1020,109.5C 1020.33,126.833 1020.67,144.167 1021,161.5C 1021.54,167.658 1022.71,173.658 1024.5,179.5C 1015.5,179.5 1006.5,179.5 997.5,179.5C 997.313,177.436 996.813,175.436 996,173.5C 987.488,180.754 977.655,183.254 966.5,181C 943.628,174.088 936.794,159.588 946,137.5C 951.494,129.829 958.994,125.329 968.5,124C 977.12,122.748 985.787,122.248 994.5,122.5C 995.428,108.253 989.094,103.086 975.5,107C 972.394,109.216 970.727,112.216 970.5,116C 961.588,116.816 952.755,116.65 944,115.5C 944.625,102.517 951.125,93.6839 963.5,89C 967.543,87.5086 971.543,86.3419 975.5,85.5 Z M 980.5,138.5 C 985.167,138.5 989.833,138.5 994.5,138.5C 994.904,144.29 994.404,149.956 993,155.5C 989.061,158.719 984.561,160.719 979.5,161.5C 969.244,158.855 966.744,152.855 972,143.5C 974.682,141.415 977.516,139.748 980.5,138.5 Z"/></g>
<g><path style="opacity:0.887" fill="#000000" d="M 1081.5,85.5 C 1089.97,84.5982 1097.97,86.0982 1105.5,90C 1108.04,92.2047 1110.21,94.7047 1112,97.5C 1122.66,86.4282 1135.49,82.9282 1150.5,87C 1161.88,91.0665 1168.05,99.2331 1169,111.5C 1169.5,134.164 1169.67,156.831 1169.5,179.5C 1160.5,179.5 1151.5,179.5 1142.5,179.5C 1142.67,158.164 1142.5,136.831 1142,115.5C 1140.84,109.419 1137.18,106.753 1131,107.5C 1124.2,107.23 1119.54,110.23 1117,116.5C 1116.5,137.497 1116.33,158.497 1116.5,179.5C 1107.58,179.817 1098.75,179.484 1090,178.5C 1089.67,157.167 1089.33,135.833 1089,114.5C 1087.33,109.157 1083.66,106.824 1078,107.5C 1071.91,106.976 1067.24,109.309 1064,114.5C 1063.5,136.164 1063.33,157.831 1063.5,179.5C 1054.58,179.817 1045.75,179.484 1037,178.5C 1036.33,148.5 1036.33,118.5 1037,88.5C 1045.41,87.5168 1053.91,87.1834 1062.5,87.5C 1061.66,94.418 1063.32,95.5847 1067.5,91C 1072.02,88.4455 1076.68,86.6121 1081.5,85.5 Z"/></g>
<g><path style="opacity:0.903" fill="#000000" d="M 1227.5,85.5 C 1252.3,84.1207 1266.46,95.7874 1270,120.5C 1272.71,137.142 1270.05,152.809 1262,167.5C 1251.76,180.361 1238.59,184.528 1222.5,180C 1219.09,178.545 1215.92,176.712 1213,174.5C 1212.5,187.829 1212.33,201.163 1212.5,214.5C 1203.83,214.5 1195.17,214.5 1186.5,214.5C 1186.5,172.167 1186.5,129.833 1186.5,87.5C 1194.51,87.3336 1202.51,87.5003 1210.5,88C 1211.25,89.7337 1211.75,91.567 1212,93.5C 1216.64,89.5967 1221.81,86.93 1227.5,85.5 Z M 1221.5,107.5 C 1234.2,105.431 1241.37,110.765 1243,123.5C 1244.09,132.658 1243.43,141.658 1241,150.5C 1235.93,159.981 1228.43,162.481 1218.5,158C 1216.67,156.167 1214.83,154.333 1213,152.5C 1212.33,140.167 1212.33,127.833 1213,115.5C 1215.07,111.923 1217.91,109.256 1221.5,107.5 Z"/></g>
<g><path style="opacity:0.892" fill="#000000" d="M 1315.5,85.5 C 1340.5,82.2282 1356.34,92.5615 1363,116.5C 1364.3,125.114 1364.8,133.781 1364.5,142.5C 1345.49,142.167 1326.49,142.5 1307.5,143.5C 1312.92,158.542 1323.25,163.375 1338.5,158C 1342.33,155.663 1345.99,153.163 1349.5,150.5C 1353.74,154.233 1357.9,158.233 1362,162.5C 1362.67,163.5 1362.67,164.5 1362,165.5C 1348.27,180.394 1331.44,185.227 1311.5,180C 1294.71,174.88 1284.55,163.713 1281,146.5C 1276.88,125.538 1282.38,107.705 1297.5,93C 1303.15,89.4023 1309.15,86.9023 1315.5,85.5 Z M 1317.5,107.5 C 1330.74,104.932 1337.74,110.265 1338.5,123.5C 1328.5,123.5 1318.5,123.5 1308.5,123.5C 1308.93,116.625 1311.93,111.291 1317.5,107.5 Z"/></g>
<g><path style="opacity:0.89" fill="#000000" d="M 1420.5,85.5 C 1442.59,82.9351 1454.75,92.6018 1457,114.5C 1457.5,136.164 1457.67,157.831 1457.5,179.5C 1448.5,179.5 1439.5,179.5 1430.5,179.5C 1430.92,157.465 1430.42,135.465 1429,113.5C 1426.26,109.128 1422.26,107.128 1417,107.5C 1411.67,107.331 1407.34,109.331 1404,113.5C 1403.5,135.497 1403.33,157.497 1403.5,179.5C 1394.5,179.5 1385.5,179.5 1376.5,179.5C 1376.5,148.833 1376.5,118.167 1376.5,87.5C 1384.83,87.5 1393.17,87.5 1401.5,87.5C 1401.3,89.9892 1401.8,92.3225 1403,94.5C 1408.03,89.7367 1413.86,86.7367 1420.5,85.5 Z"/></g>
<g><path style="opacity:0.877" fill="#000000" d="M 1588.5,85.5 C 1603.7,83.3209 1616.86,87.3209 1628,97.5C 1637.05,111.091 1640.55,126.091 1638.5,142.5C 1619.16,142.333 1599.83,142.5 1580.5,143C 1585.79,158.323 1596.12,163.323 1611.5,158C 1615.37,155.453 1619.2,152.953 1623,150.5C 1628.32,154.317 1632.82,158.984 1636.5,164.5C 1626.95,176.524 1614.45,182.19 1599,181.5C 1574.98,181.335 1559.98,169.668 1554,146.5C 1549.88,125.538 1555.38,107.705 1570.5,93C 1576.15,89.4023 1582.15,86.9023 1588.5,85.5 Z M 1591.5,107.5 C 1604.37,105.253 1611.04,110.586 1611.5,123.5C 1601.5,123.5 1591.5,123.5 1581.5,123.5C 1582.32,116.515 1585.65,111.182 1591.5,107.5 Z"/></g>
<g><path style="opacity:0.735" fill="#000000" d="M 380.5,87.5 C 385.14,90.6667 388.64,95.0001 391,100.5C 387.757,150.035 408.257,185.701 452.5,207.5C 455.348,212.321 457.681,217.321 459.5,222.5C 432.662,215.494 411.495,200.494 396,177.5C 378.056,149.728 372.889,119.728 380.5,87.5 Z"/></g>
<g><path style="opacity:0.872" fill="#000000" d="M 852.5,87.5 C 862.19,87.1682 871.856,87.5016 881.5,88.5C 886.668,105.172 891.834,121.839 897,138.5C 902,121.833 907,105.167 912,88.5C 921.417,87.5149 930.917,87.1816 940.5,87.5C 928.299,126.603 914.799,165.27 900,203.5C 890.128,216.306 877.462,219.972 862,214.5C 861.333,208.167 861.333,201.833 862,195.5C 874.475,196.852 881.641,191.352 883.5,179C 873.061,148.515 862.727,118.015 852.5,87.5 Z"/></g>
<g><path style="opacity:0.872" fill="#000000" d="M 1463.5,87.5 C 1473.19,87.1682 1482.86,87.5016 1492.5,88.5C 1497.37,105.263 1502.53,121.93 1508,138.5C 1512.8,121.774 1517.8,105.107 1523,88.5C 1532.42,87.5149 1541.92,87.1816 1551.5,87.5C 1539.3,126.603 1525.8,165.27 1511,203.5C 1504.93,212.867 1496.27,217.201 1485,216.5C 1480.83,216.626 1476.83,215.959 1473,214.5C 1472.33,208.167 1472.33,201.833 1473,195.5C 1485.47,196.852 1492.64,191.352 1494.5,179C 1484.06,148.515 1473.73,118.015 1463.5,87.5 Z"/></g>
<g><path style="opacity:0.735" fill="#000000" d="M 596.5,89.5 C 597.833,89.5 599.167,89.5 600.5,89.5C 609.032,143.254 590.365,184.42 544.5,213C 537.455,216.848 530.121,220.015 522.5,222.5C 521.692,222.192 521.025,221.692 520.5,221C 522.859,216.451 525.359,211.951 528,207.5C 538.77,201.534 548.937,194.701 558.5,187C 573.145,172.34 582.645,154.84 587,134.5C 588.184,123.542 588.851,112.542 589,101.5C 591.725,97.6155 594.225,93.6155 596.5,89.5 Z"/></g>
<g><path style="opacity:0.894" fill="#000000" d="M 521.5,117.5 C 536.837,117.333 552.17,117.5 567.5,118C 567.957,118.414 568.291,118.914 568.5,119.5C 542.428,163.971 516.594,208.638 491,253.5C 489.488,252.743 488.154,251.743 487,250.5C 479.643,238.452 472.809,226.118 466.5,213.5C 484.309,181.216 502.643,149.216 521.5,117.5 Z"/></g>
</svg>
