<?xml version="1.0" encoding="UTF-8"?>
<svg xmlns="http://www.w3.org/2000/svg" xmlns:xlink="http://www.w3.org/1999/xlink" width="202px" height="26px" viewBox="0 0 202 26" version="1.1">
<defs>
<filter id="alpha" filterUnits="objectBoundingBox" x="0%" y="0%" width="100%" height="100%">
  <feColorMatrix type="matrix" in="SourceGraphic" values="0 0 0 0 1 0 0 0 0 1 0 0 0 0 1 0 0 0 1 0"/>
</filter>
<mask id="mask0">
  <g filter="url(#alpha)">
<rect x="0" y="0" width="202" height="26" style="fill:rgb(0%,0%,0%);fill-opacity:0.760784;stroke:none;"/>
  </g>
</mask>
<clipPath id="clip1">
  <rect x="0" y="0" width="202" height="26"/>
</clipPath>
<g id="surface5" clip-path="url(#clip1)">
<path style=" stroke:none;fill-rule:evenodd;fill:rgb(0%,0%,0%);fill-opacity:1;" d="M 47.949219 0.25 C 50.371094 0.105469 52.636719 0.621094 54.75 1.800781 C 55.339844 2.144531 55.875 2.5625 56.351562 3.050781 C 56.328125 3.109375 56.296875 3.160156 56.25 3.199219 C 55.648438 3.265625 55.050781 3.265625 54.449219 3.199219 C 50.808594 1 47.171875 1 43.550781 3.199219 C 42.917969 3.265625 42.285156 3.265625 41.648438 3.199219 C 41.554688 3.128906 41.539062 3.042969 41.601562 2.949219 C 43.46875 1.457031 45.585938 0.554688 47.949219 0.25 Z M 47.949219 0.25 "/>
</g>
<mask id="mask1">
  <g filter="url(#alpha)">
<rect x="0" y="0" width="202" height="26" style="fill:rgb(0%,0%,0%);fill-opacity:0.00392157;stroke:none;"/>
  </g>
</mask>
<clipPath id="clip2">
  <rect x="0" y="0" width="202" height="26"/>
</clipPath>
<g id="surface8" clip-path="url(#clip2)">
<path style=" stroke:none;fill-rule:evenodd;fill:rgb(0%,0%,0%);fill-opacity:1;" d="M 35.25 0.851562 C 35.382812 0.917969 35.382812 0.917969 35.25 0.851562 Z M 35.25 0.851562 "/>
</g>
<mask id="mask2">
  <g filter="url(#alpha)">
<rect x="0" y="0" width="202" height="26" style="fill:rgb(0%,0%,0%);fill-opacity:0.054902;stroke:none;"/>
  </g>
</mask>
<clipPath id="clip3">
  <rect x="0" y="0" width="202" height="26"/>
</clipPath>
<g id="surface11" clip-path="url(#clip3)">
<path style=" stroke:none;fill-rule:evenodd;fill:rgb(0%,0%,0%);fill-opacity:1;" d="M 36.148438 3.550781 C 36.320312 3.535156 36.488281 3.550781 36.648438 3.601562 C 36.441406 3.8125 36.273438 3.796875 36.148438 3.550781 Z M 36.148438 3.550781 "/>
</g>
<mask id="mask3">
  <g filter="url(#alpha)">
<rect x="0" y="0" width="202" height="26" style="fill:rgb(0%,0%,0%);fill-opacity:0.894118;stroke:none;"/>
  </g>
</mask>
<clipPath id="clip4">
  <rect x="0" y="0" width="202" height="26"/>
</clipPath>
<g id="surface14" clip-path="url(#clip4)">
<path style=" stroke:none;fill-rule:evenodd;fill:rgb(0%,0%,0%);fill-opacity:1;" d="M 36.851562 4.148438 C 39.652344 4.117188 42.449219 4.148438 45.25 4.25 C 46.457031 6.28125 47.625 8.332031 48.75 10.398438 C 48.339844 11.144531 47.921875 11.894531 47.5 12.648438 C 47.398438 12.882812 47.230469 13.050781 47 13.148438 C 46.921875 13.136719 46.855469 13.101562 46.800781 13.050781 C 46.464844 12.53125 46.148438 11.996094 45.851562 11.449219 C 45.351562 11.316406 44.851562 11.316406 44.351562 11.449219 C 44.992188 12.546875 45.589844 13.664062 46.148438 14.800781 C 45.699219 15.683594 45.230469 16.570312 44.75 17.449219 C 44.628906 17.5625 44.496094 17.578125 44.351562 17.5 C 41.878906 13.175781 39.394531 8.859375 36.898438 4.550781 C 36.851562 4.421875 36.835938 4.289062 36.851562 4.148438 Z M 41.851562 7.148438 C 42.386719 7.117188 42.921875 7.152344 43.449219 7.25 C 43.648438 7.617188 43.851562 7.984375 44.050781 8.351562 C 43.550781 8.484375 43.050781 8.484375 42.550781 8.351562 C 42.3125 7.945312 42.082031 7.542969 41.851562 7.148438 Z M 41.851562 7.148438 "/>
</g>
<mask id="mask4">
  <g filter="url(#alpha)">
<rect x="0" y="0" width="202" height="26" style="fill:rgb(0%,0%,0%);fill-opacity:0.85098;stroke:none;"/>
  </g>
</mask>
<clipPath id="clip5">
  <rect x="0" y="0" width="202" height="26"/>
</clipPath>
<g id="surface17" clip-path="url(#clip5)">
<path style=" stroke:none;fill-rule:evenodd;fill:rgb(0%,0%,0%);fill-opacity:1;" d="M 45.648438 4.148438 C 47.851562 4.148438 50.050781 4.148438 52.25 4.148438 C 51.339844 6.03125 50.324219 7.867188 49.199219 9.648438 C 49.125 9.757812 49.027344 9.824219 48.898438 9.851562 C 47.792969 8.203125 46.757812 6.503906 45.800781 4.75 C 45.6875 4.566406 45.636719 4.367188 45.648438 4.148438 Z M 45.648438 4.148438 "/>
</g>
<mask id="mask5">
  <g filter="url(#alpha)">
<rect x="0" y="0" width="202" height="26" style="fill:rgb(0%,0%,0%);fill-opacity:0.898039;stroke:none;"/>
  </g>
</mask>
<clipPath id="clip6">
  <rect x="0" y="0" width="202" height="26"/>
</clipPath>
<g id="surface20" clip-path="url(#clip6)">
<path style=" stroke:none;fill-rule:evenodd;fill:rgb(0%,0%,0%);fill-opacity:1;" d="M 52.648438 4.148438 C 55.515625 4.148438 58.382812 4.148438 61.25 4.148438 C 61.222656 4.402344 61.140625 4.636719 61 4.851562 C 59.761719 7.011719 58.511719 9.160156 57.25 11.300781 C 55.515625 11.316406 53.78125 11.367188 52.050781 11.449219 C 50.339844 14.371094 48.65625 17.304688 47 20.25 C 46.867188 20.5 46.683594 20.699219 46.449219 20.851562 C 46.355469 20.839844 46.273438 20.804688 46.199219 20.75 C 45.707031 19.933594 45.242188 19.097656 44.800781 18.25 C 44.734375 18.117188 44.734375 17.984375 44.800781 17.851562 C 47.472656 13.308594 50.085938 8.742188 52.648438 4.148438 Z M 54.550781 7.148438 C 55.117188 7.132812 55.683594 7.148438 56.25 7.199219 C 55.984375 7.601562 55.714844 8 55.449219 8.398438 C 54.914062 8.484375 54.378906 8.464844 53.851562 8.351562 C 54.085938 7.945312 54.316406 7.546875 54.550781 7.148438 Z M 54.550781 7.148438 "/>
</g>
<mask id="mask6">
  <g filter="url(#alpha)">
<rect x="0" y="0" width="202" height="26" style="fill:rgb(0%,0%,0%);fill-opacity:0.890196;stroke:none;"/>
  </g>
</mask>
<clipPath id="clip7">
  <rect x="0" y="0" width="202" height="26"/>
</clipPath>
<g id="surface23" clip-path="url(#clip7)">
<path style=" stroke:none;fill-rule:evenodd;fill:rgb(0%,0%,0%);fill-opacity:1;" d="M 165.449219 6.449219 C 166.316406 6.433594 167.183594 6.449219 168.050781 6.5 C 168.148438 7.242188 168.179688 7.992188 168.148438 8.75 C 168.617188 8.75 169.082031 8.75 169.550781 8.75 C 169.550781 9.382812 169.550781 10.015625 169.550781 10.648438 C 169.082031 10.648438 168.617188 10.648438 168.148438 10.648438 C 168.132812 12.316406 168.148438 13.984375 168.199219 15.648438 C 168.25 15.765625 168.332031 15.851562 168.449219 15.898438 C 168.847656 15.949219 169.25 15.964844 169.648438 15.949219 C 169.710938 16.660156 169.644531 17.34375 169.449219 18 C 168.375 18.277344 167.339844 18.175781 166.351562 17.699219 C 165.847656 17.34375 165.5625 16.863281 165.5 16.25 C 165.449219 14.382812 165.433594 12.515625 165.449219 10.648438 C 164.984375 10.648438 164.515625 10.648438 164.050781 10.648438 C 164.050781 10.015625 164.050781 9.382812 164.050781 8.75 C 164.515625 8.75 164.984375 8.75 165.449219 8.75 C 165.449219 7.984375 165.449219 7.214844 165.449219 6.449219 Z M 165.449219 6.449219 "/>
</g>
<mask id="mask7">
  <g filter="url(#alpha)">
<rect x="0" y="0" width="202" height="26" style="fill:rgb(0%,0%,0%);fill-opacity:0.878431;stroke:none;"/>
  </g>
</mask>
<clipPath id="clip8">
  <rect x="0" y="0" width="202" height="26"/>
</clipPath>
<g id="surface26" clip-path="url(#clip8)">
<path style=" stroke:none;fill-rule:evenodd;fill:rgb(0%,0%,0%);fill-opacity:1;" d="M 80.148438 8.550781 C 81.546875 8.378906 82.8125 8.695312 83.949219 9.5 C 84.320312 9.921875 84.570312 10.402344 84.699219 10.949219 C 84.734375 12.683594 84.765625 14.417969 84.800781 16.148438 C 84.855469 16.765625 84.972656 17.367188 85.148438 17.949219 C 84.214844 17.949219 83.285156 17.949219 82.351562 17.949219 C 82.363281 17.75 82.296875 17.585938 82.148438 17.449219 C 80.789062 18.332031 79.390625 18.378906 77.949219 17.601562 C 76.476562 16.226562 76.375 14.761719 77.648438 13.199219 C 78.175781 12.78125 78.777344 12.511719 79.449219 12.398438 C 80.3125 12.273438 81.179688 12.226562 82.050781 12.25 C 82.144531 10.828125 81.511719 10.3125 80.148438 10.699219 C 79.878906 10.941406 79.710938 11.242188 79.648438 11.601562 C 78.757812 11.679688 77.875 11.664062 77 11.550781 C 77.0625 10.25 77.710938 9.367188 78.949219 8.898438 C 79.355469 8.75 79.753906 8.632812 80.148438 8.550781 Z M 80.75 13.851562 C 81.183594 13.851562 81.617188 13.851562 82.050781 13.851562 C 82.394531 15.152344 81.910156 15.921875 80.601562 16.148438 C 79.511719 15.910156 79.261719 15.308594 79.851562 14.351562 C 80.117188 14.101562 80.414062 13.933594 80.75 13.851562 Z M 80.75 13.851562 "/>
</g>
<mask id="mask8">
  <g filter="url(#alpha)">
<rect x="0" y="0" width="202" height="26" style="fill:rgb(0%,0%,0%);fill-opacity:0.894118;stroke:none;"/>
  </g>
</mask>
<clipPath id="clip9">
  <rect x="0" y="0" width="202" height="26"/>
</clipPath>
<g id="surface29" clip-path="url(#clip9)">
<path style=" stroke:none;fill-rule:evenodd;fill:rgb(0%,0%,0%);fill-opacity:1;" d="M 97.550781 8.550781 C 98.507812 8.484375 99.441406 8.601562 100.351562 8.898438 C 101.242188 9.304688 101.792969 9.984375 102 10.949219 C 102.03125 12.683594 102.066406 14.417969 102.101562 16.148438 C 102.152344 16.765625 102.269531 17.367188 102.449219 17.949219 C 101.550781 17.949219 100.648438 17.949219 99.75 17.949219 C 99.730469 17.742188 99.679688 17.542969 99.601562 17.351562 C 98.75 18.074219 97.765625 18.324219 96.648438 18.101562 C 94.363281 17.410156 93.679688 15.957031 94.601562 13.75 C 95.148438 12.984375 95.898438 12.53125 96.851562 12.398438 C 97.710938 12.273438 98.578125 12.226562 99.449219 12.25 C 99.542969 10.824219 98.910156 10.308594 97.550781 10.699219 C 97.238281 10.921875 97.074219 11.222656 97.050781 11.601562 C 96.160156 11.679688 95.277344 11.664062 94.398438 11.550781 C 94.460938 10.25 95.113281 9.367188 96.351562 8.898438 C 96.753906 8.75 97.15625 8.632812 97.550781 8.550781 Z M 98.050781 13.851562 C 98.515625 13.851562 98.984375 13.851562 99.449219 13.851562 C 99.492188 14.429688 99.441406 14.996094 99.300781 15.550781 C 98.90625 15.871094 98.457031 16.070312 97.949219 16.148438 C 96.925781 15.886719 96.675781 15.285156 97.199219 14.351562 C 97.46875 14.140625 97.75 13.976562 98.050781 13.851562 Z M 98.050781 13.851562 "/>
</g>
<mask id="mask9">
  <g filter="url(#alpha)">
<rect x="0" y="0" width="202" height="26" style="fill:rgb(0%,0%,0%);fill-opacity:0.886275;stroke:none;"/>
  </g>
</mask>
<clipPath id="clip10">
  <rect x="0" y="0" width="202" height="26"/>
</clipPath>
<g id="surface32" clip-path="url(#clip10)">
<path style=" stroke:none;fill-rule:evenodd;fill:rgb(0%,0%,0%);fill-opacity:1;" d="M 108.148438 8.550781 C 108.996094 8.460938 109.796875 8.609375 110.550781 9 C 110.804688 9.21875 111.019531 9.46875 111.199219 9.75 C 112.265625 8.644531 113.550781 8.292969 115.050781 8.699219 C 116.1875 9.105469 116.804688 9.921875 116.898438 11.148438 C 116.949219 13.417969 116.96875 15.683594 116.949219 17.949219 C 116.050781 17.949219 115.148438 17.949219 114.25 17.949219 C 114.265625 15.816406 114.25 13.683594 114.199219 11.550781 C 114.085938 10.941406 113.71875 10.675781 113.101562 10.75 C 112.421875 10.722656 111.953125 11.023438 111.699219 11.648438 C 111.648438 13.75 111.632812 15.851562 111.648438 17.949219 C 110.757812 17.980469 109.875 17.949219 109 17.851562 C 108.96875 15.714844 108.933594 13.582031 108.898438 11.449219 C 108.734375 10.914062 108.367188 10.683594 107.800781 10.75 C 107.191406 10.699219 106.722656 10.929688 106.398438 11.449219 C 106.351562 13.617188 106.332031 15.78125 106.351562 17.949219 C 105.457031 17.980469 104.574219 17.949219 103.699219 17.851562 C 103.632812 14.851562 103.632812 11.851562 103.699219 8.851562 C 104.539062 8.75 105.390625 8.71875 106.25 8.75 C 106.164062 9.441406 106.332031 9.558594 106.75 9.101562 C 107.203125 8.84375 107.667969 8.660156 108.148438 8.550781 Z M 108.148438 8.550781 "/>
</g>
<mask id="mask10">
  <g filter="url(#alpha)">
<rect x="0" y="0" width="202" height="26" style="fill:rgb(0%,0%,0%);fill-opacity:0.901961;stroke:none;"/>
  </g>
</mask>
<clipPath id="clip11">
  <rect x="0" y="0" width="202" height="26"/>
</clipPath>
<g id="surface35" clip-path="url(#clip11)">
<path style=" stroke:none;fill-rule:evenodd;fill:rgb(0%,0%,0%);fill-opacity:1;" d="M 122.75 8.550781 C 125.230469 8.410156 126.644531 9.578125 127 12.050781 C 127.269531 13.714844 127.003906 15.28125 126.199219 16.75 C 125.175781 18.035156 123.859375 18.453125 122.25 18 C 121.910156 17.855469 121.59375 17.671875 121.300781 17.449219 C 121.25 18.78125 121.234375 20.117188 121.25 21.449219 C 120.382812 21.449219 119.515625 21.449219 118.648438 21.449219 C 118.648438 17.214844 118.648438 12.984375 118.648438 8.75 C 119.449219 8.734375 120.25 8.75 121.050781 8.800781 C 121.125 8.972656 121.175781 9.15625 121.199219 9.351562 C 121.664062 8.960938 122.179688 8.691406 122.75 8.550781 Z M 122.148438 10.75 C 123.421875 10.542969 124.136719 11.078125 124.300781 12.351562 C 124.410156 13.265625 124.34375 14.164062 124.101562 15.050781 C 123.59375 16 122.84375 16.25 121.851562 15.800781 C 121.667969 15.617188 121.484375 15.433594 121.300781 15.25 C 121.234375 14.015625 121.234375 12.785156 121.300781 11.550781 C 121.507812 11.191406 121.789062 10.925781 122.148438 10.75 Z M 122.148438 10.75 "/>
</g>
<mask id="mask11">
  <g filter="url(#alpha)">
<rect x="0" y="0" width="202" height="26" style="fill:rgb(0%,0%,0%);fill-opacity:0.890196;stroke:none;"/>
  </g>
</mask>
<clipPath id="clip12">
  <rect x="0" y="0" width="202" height="26"/>
</clipPath>
<g id="surface38" clip-path="url(#clip12)">
<path style=" stroke:none;fill-rule:evenodd;fill:rgb(0%,0%,0%);fill-opacity:1;" d="M 131.550781 8.550781 C 134.050781 8.222656 135.632812 9.257812 136.300781 11.648438 C 136.429688 12.511719 136.480469 13.378906 136.449219 14.25 C 134.550781 14.214844 132.648438 14.25 130.75 14.351562 C 131.292969 15.855469 132.324219 16.335938 133.851562 15.800781 C 134.234375 15.566406 134.597656 15.316406 134.949219 15.050781 C 135.375 15.421875 135.789062 15.824219 136.199219 16.25 C 136.265625 16.351562 136.265625 16.449219 136.199219 16.550781 C 134.828125 18.039062 133.144531 18.523438 131.148438 18 C 129.472656 17.488281 128.453125 16.371094 128.101562 14.648438 C 127.6875 12.554688 128.238281 10.769531 129.75 9.300781 C 130.316406 8.941406 130.914062 8.691406 131.550781 8.550781 Z M 131.75 10.75 C 133.074219 10.492188 133.773438 11.027344 133.851562 12.351562 C 132.851562 12.351562 131.851562 12.351562 130.851562 12.351562 C 130.894531 11.664062 131.191406 11.128906 131.75 10.75 Z M 131.75 10.75 "/>
</g>
<mask id="mask12">
  <g filter="url(#alpha)">
<rect x="0" y="0" width="202" height="26" style="fill:rgb(0%,0%,0%);fill-opacity:0.890196;stroke:none;"/>
  </g>
</mask>
<clipPath id="clip13">
  <rect x="0" y="0" width="202" height="26"/>
</clipPath>
<g id="surface41" clip-path="url(#clip13)">
<path style=" stroke:none;fill-rule:evenodd;fill:rgb(0%,0%,0%);fill-opacity:1;" d="M 142.050781 8.550781 C 144.257812 8.292969 145.476562 9.261719 145.699219 11.449219 C 145.75 13.617188 145.765625 15.78125 145.75 17.949219 C 144.851562 17.949219 143.949219 17.949219 143.050781 17.949219 C 143.09375 15.746094 143.042969 13.546875 142.898438 11.351562 C 142.625 10.914062 142.226562 10.710938 141.699219 10.75 C 141.167969 10.734375 140.734375 10.933594 140.398438 11.351562 C 140.351562 13.550781 140.332031 15.75 140.351562 17.949219 C 139.449219 17.949219 138.550781 17.949219 137.648438 17.949219 C 137.648438 14.882812 137.648438 11.816406 137.648438 8.75 C 138.484375 8.75 139.316406 8.75 140.148438 8.75 C 140.128906 9 140.179688 9.230469 140.300781 9.449219 C 140.804688 8.972656 141.386719 8.671875 142.050781 8.550781 Z M 142.050781 8.550781 "/>
</g>
<mask id="mask13">
  <g filter="url(#alpha)">
<rect x="0" y="0" width="202" height="26" style="fill:rgb(0%,0%,0%);fill-opacity:0.878431;stroke:none;"/>
  </g>
</mask>
<clipPath id="clip14">
  <rect x="0" y="0" width="202" height="26"/>
</clipPath>
<g id="surface44" clip-path="url(#clip14)">
<path style=" stroke:none;fill-rule:evenodd;fill:rgb(0%,0%,0%);fill-opacity:1;" d="M 158.851562 8.550781 C 160.371094 8.332031 161.6875 8.730469 162.800781 9.75 C 163.703125 11.109375 164.054688 12.609375 163.851562 14.25 C 161.914062 14.234375 159.984375 14.25 158.050781 14.300781 C 158.578125 15.832031 159.613281 16.332031 161.148438 15.800781 C 161.535156 15.546875 161.921875 15.296875 162.300781 15.050781 C 162.832031 15.433594 163.28125 15.898438 163.648438 16.449219 C 162.695312 17.652344 161.445312 18.21875 159.898438 18.148438 C 157.496094 18.132812 155.996094 16.96875 155.398438 14.648438 C 154.988281 12.554688 155.539062 10.769531 157.050781 9.300781 C 157.613281 8.941406 158.214844 8.691406 158.851562 8.550781 Z M 159.148438 10.75 C 160.4375 10.523438 161.105469 11.058594 161.148438 12.351562 C 160.148438 12.351562 159.148438 12.351562 158.148438 12.351562 C 158.230469 11.652344 158.566406 11.117188 159.148438 10.75 Z M 159.148438 10.75 "/>
</g>
<mask id="mask14">
  <g filter="url(#alpha)">
<rect x="0" y="0" width="202" height="26" style="fill:rgb(0%,0%,0%);fill-opacity:0.733333;stroke:none;"/>
  </g>
</mask>
<clipPath id="clip15">
  <rect x="0" y="0" width="202" height="26"/>
</clipPath>
<g id="surface47" clip-path="url(#clip15)">
<path style=" stroke:none;fill-rule:evenodd;fill:rgb(0%,0%,0%);fill-opacity:1;" d="M 38.050781 8.75 C 38.515625 9.066406 38.863281 9.5 39.101562 10.050781 C 38.777344 15.003906 40.824219 18.570312 45.25 20.75 C 45.535156 21.230469 45.769531 21.730469 45.949219 22.25 C 43.265625 21.550781 41.148438 20.050781 39.601562 17.75 C 37.804688 14.972656 37.289062 11.972656 38.050781 8.75 Z M 38.050781 8.75 "/>
</g>
<mask id="mask15">
  <g filter="url(#alpha)">
<rect x="0" y="0" width="202" height="26" style="fill:rgb(0%,0%,0%);fill-opacity:0.870588;stroke:none;"/>
  </g>
</mask>
<clipPath id="clip16">
  <rect x="0" y="0" width="202" height="26"/>
</clipPath>
<g id="surface50" clip-path="url(#clip16)">
<path style=" stroke:none;fill-rule:evenodd;fill:rgb(0%,0%,0%);fill-opacity:1;" d="M 85.25 8.75 C 86.21875 8.71875 87.1875 8.75 88.148438 8.851562 C 88.667969 10.515625 89.183594 12.183594 89.699219 13.851562 C 90.199219 12.183594 90.699219 10.515625 91.199219 8.851562 C 92.140625 8.75 93.089844 8.71875 94.050781 8.75 C 92.828125 12.660156 91.480469 16.527344 90 20.351562 C 89.011719 21.628906 87.746094 21.996094 86.199219 21.449219 C 86.132812 20.816406 86.132812 20.183594 86.199219 19.550781 C 87.449219 19.683594 88.164062 19.136719 88.351562 17.898438 C 87.304688 14.851562 86.273438 11.800781 85.25 8.75 Z M 85.25 8.75 "/>
</g>
<mask id="mask16">
  <g filter="url(#alpha)">
<rect x="0" y="0" width="202" height="26" style="fill:rgb(0%,0%,0%);fill-opacity:0.870588;stroke:none;"/>
  </g>
</mask>
<clipPath id="clip17">
  <rect x="0" y="0" width="202" height="26"/>
</clipPath>
<g id="surface53" clip-path="url(#clip17)">
<path style=" stroke:none;fill-rule:evenodd;fill:rgb(0%,0%,0%);fill-opacity:1;" d="M 146.351562 8.75 C 147.320312 8.71875 148.285156 8.75 149.25 8.851562 C 149.738281 10.527344 150.253906 12.191406 150.800781 13.851562 C 151.28125 12.175781 151.78125 10.511719 152.300781 8.851562 C 153.242188 8.75 154.191406 8.71875 155.148438 8.75 C 153.929688 12.660156 152.578125 16.527344 151.101562 20.351562 C 150.492188 21.285156 149.628906 21.71875 148.5 21.648438 C 148.082031 21.664062 147.683594 21.597656 147.300781 21.449219 C 147.234375 20.816406 147.234375 20.183594 147.300781 19.550781 C 148.546875 19.683594 149.265625 19.136719 149.449219 17.898438 C 148.40625 14.851562 147.371094 11.800781 146.351562 8.75 Z M 146.351562 8.75 "/>
</g>
<mask id="mask17">
  <g filter="url(#alpha)">
<rect x="0" y="0" width="202" height="26" style="fill:rgb(0%,0%,0%);fill-opacity:0.733333;stroke:none;"/>
  </g>
</mask>
<clipPath id="clip18">
  <rect x="0" y="0" width="202" height="26"/>
</clipPath>
<g id="surface56" clip-path="url(#clip18)">
<path style=" stroke:none;fill-rule:evenodd;fill:rgb(0%,0%,0%);fill-opacity:1;" d="M 59.648438 8.949219 C 59.785156 8.949219 59.917969 8.949219 60.050781 8.949219 C 60.902344 14.324219 59.035156 18.441406 54.449219 21.300781 C 53.746094 21.683594 53.011719 22 52.25 22.25 C 52.167969 22.21875 52.101562 22.167969 52.050781 22.101562 C 52.285156 21.644531 52.535156 21.195312 52.800781 20.75 C 53.878906 20.152344 54.894531 19.46875 55.851562 18.699219 C 57.316406 17.234375 58.265625 15.484375 58.699219 13.449219 C 58.820312 12.355469 58.886719 11.253906 58.898438 10.148438 C 59.171875 9.761719 59.421875 9.363281 59.648438 8.949219 Z M 59.648438 8.949219 "/>
</g>
<mask id="mask18">
  <g filter="url(#alpha)">
<rect x="0" y="0" width="202" height="26" style="fill:rgb(0%,0%,0%);fill-opacity:0.894118;stroke:none;"/>
  </g>
</mask>
<clipPath id="clip19">
  <rect x="0" y="0" width="202" height="26"/>
</clipPath>
<g id="surface59" clip-path="url(#clip19)">
<path style=" stroke:none;fill-rule:evenodd;fill:rgb(0%,0%,0%);fill-opacity:1;" d="M 52.148438 11.75 C 53.683594 11.734375 55.21875 11.75 56.75 11.800781 C 56.796875 11.839844 56.828125 11.890625 56.851562 11.949219 C 54.242188 16.398438 51.660156 20.863281 49.101562 25.351562 C 48.949219 25.273438 48.816406 25.175781 48.699219 25.050781 C 47.964844 23.84375 47.28125 22.613281 46.648438 21.351562 C 48.429688 18.121094 50.265625 14.921875 52.148438 11.75 Z M 52.148438 11.75 "/>
</g>
</defs>
<g id="surface1">
<use xlink:href="#surface5" mask="url(#mask0)"/>
<use xlink:href="#surface8" mask="url(#mask1)"/>
<use xlink:href="#surface11" mask="url(#mask2)"/>
<use xlink:href="#surface14" mask="url(#mask3)"/>
<use xlink:href="#surface17" mask="url(#mask4)"/>
<use xlink:href="#surface20" mask="url(#mask5)"/>
<use xlink:href="#surface23" mask="url(#mask6)"/>
<use xlink:href="#surface26" mask="url(#mask7)"/>
<use xlink:href="#surface29" mask="url(#mask8)"/>
<use xlink:href="#surface32" mask="url(#mask9)"/>
<use xlink:href="#surface35" mask="url(#mask10)"/>
<use xlink:href="#surface38" mask="url(#mask11)"/>
<use xlink:href="#surface41" mask="url(#mask12)"/>
<use xlink:href="#surface44" mask="url(#mask13)"/>
<use xlink:href="#surface47" mask="url(#mask14)"/>
<use xlink:href="#surface50" mask="url(#mask15)"/>
<use xlink:href="#surface53" mask="url(#mask16)"/>
<use xlink:href="#surface56" mask="url(#mask17)"/>
<use xlink:href="#surface59" mask="url(#mask18)"/>
</g>
</svg>
